<?xml version="1.0" standalone="no"?>
<!DOCTYPE svg PUBLIC "-//W3C//DTD SVG 20010904//EN"
 "http://www.w3.org/TR/2001/REC-SVG-20010904/DTD/svg10.dtd">
<svg version="1.0" xmlns="http://www.w3.org/2000/svg"
 width="836.000000pt" height="836.000000pt" viewBox="0 0 836.000000 836.000000"
 preserveAspectRatio="xMidYMid meet">
<metadata>
Created by potrace 1.11, written by Peter Selinger 2001-2013
</metadata>
<g transform="translate(0.000000,836.000000) scale(0.100000,-0.100000)"
fill="#000000" stroke="none">
<path d="M2308 8356 c-1 -2 -34 -6 -72 -10 -38 -4 -103 -14 -145 -23 -42 -9
-83 -17 -91 -18 -8 -1 -22 -5 -30 -8 -8 -3 -51 -17 -95 -30 -44 -14 -93 -31
-110 -38 -16 -7 -32 -13 -35 -14 -12 -3 -179 -87 -215 -107 -237 -138 -457
-345 -612 -578 -44 -67 -126 -207 -128 -220 -1 -3 -9 -23 -19 -45 -54 -119
-114 -313 -136 -433 -20 -116 -24 -165 -23 -347 1 -177 5 -226 23 -315 5 -25
12 -57 15 -72 11 -58 15 -76 29 -117 9 -22 12 -41 9 -41 -4 0 -2 -5 5 -12 7
-7 12 -20 12 -30 0 -10 4 -26 9 -36 5 -9 16 -33 23 -52 21 -57 146 -299 163
-316 8 -9 15 -19 15 -23 0 -4 11 -21 25 -37 14 -16 25 -32 25 -36 0 -4 6 -13
13 -20 6 -7 30 -36 52 -63 22 -28 83 -93 137 -145 111 -109 124 -120 137 -120
5 0 11 -6 14 -13 8 -21 197 -143 304 -196 110 -55 146 -71 218 -96 28 -9 57
-20 65 -23 8 -3 18 -6 23 -7 4 -2 9 -4 12 -5 3 -1 13 -3 23 -5 9 -1 24 -4 32
-8 33 -13 203 -42 301 -53 70 -7 2003 -14 2024 -7 11 4 13 1960 2 2048 -8 61
-18 123 -24 150 -2 11 -6 32 -8 47 -2 15 -9 46 -16 70 -6 24 -12 48 -14 53 -1
6 -4 17 -7 25 -3 8 -18 51 -34 95 -15 44 -38 103 -51 132 -12 28 -23 57 -23
62 0 6 -3 11 -7 11 -5 0 -19 25 -33 55 -14 30 -28 55 -32 55 -5 0 -8 7 -8 15
0 8 -5 15 -11 15 -5 0 -7 5 -4 10 3 6 -1 13 -9 16 -9 3 -16 10 -16 16 0 10
-51 87 -72 110 -7 7 -26 31 -43 53 -83 112 -391 385 -434 385 -5 0 -11 4 -13
8 -4 10 -111 71 -119 69 -4 -1 -15 5 -25 14 -26 22 -192 92 -289 122 -110 34
-223 59 -335 74 -42 5 -367 13 -372 9z"/>
<path d="M6138 7635 c-2 -2 -28 -6 -58 -10 -49 -6 -81 -12 -170 -31 -51 -10
-207 -67 -280 -102 -73 -34 -234 -135 -294 -183 -51 -41 -200 -192 -231 -234
-17 -22 -35 -46 -42 -52 -6 -7 -28 -41 -49 -75 -21 -35 -42 -66 -47 -69 -5 -3
-9 -10 -10 -15 0 -5 -17 -45 -38 -89 -31 -66 -55 -133 -97 -265 -5 -15 -6 -20
-16 -75 -3 -16 -7 -40 -10 -52 -16 -73 -20 -239 -21 -943 0 -432 1 -790 2
-795 3 -10 1592 -12 1658 -2 17 3 50 8 75 11 54 8 85 14 85 16 0 1 11 4 25 6
14 3 43 10 65 16 50 14 47 14 65 21 8 3 42 15 75 27 65 23 218 100 223 113 2
4 8 7 13 7 11 0 72 42 77 53 2 4 10 7 17 7 8 0 18 6 22 13 4 6 26 26 48 42 52
39 170 157 220 220 22 28 43 52 48 53 4 2 7 8 7 13 0 5 15 30 34 56 106 148
212 434 234 633 8 73 7 325 -1 375 -4 22 -9 58 -12 80 -8 57 -45 195 -62 227
-7 15 -13 29 -13 30 2 6 -12 45 -26 71 -8 15 -12 27 -9 27 4 0 -2 12 -13 28
-11 15 -20 32 -20 37 0 12 -14 34 -98 159 -76 114 -123 168 -241 279 -29 26
-56 47 -62 47 -6 0 -11 4 -11 9 0 7 -204 145 -219 147 -3 0 -40 16 -81 36
-112 52 -160 69 -305 103 -10 3 -35 7 -55 10 -20 3 -47 8 -60 11 -25 6 -337
14 -342 9z"/>
<path d="M2056 4203 c-3 -3 -75 -13 -136 -18 -19 -2 -35 -4 -35 -5 0 -1 -16
-3 -35 -6 -19 -2 -72 -13 -116 -24 -45 -12 -90 -23 -100 -25 -105 -23 -386
-145 -494 -213 -14 -9 -37 -23 -52 -32 -121 -67 -385 -300 -493 -435 -26 -32
-53 -65 -59 -72 -21 -23 -31 -38 -76 -107 -102 -157 -186 -330 -244 -503 -14
-40 -22 -73 -19 -73 3 0 1 -6 -4 -12 -9 -11 -17 -42 -30 -108 -1 -8 -7 -37
-13 -65 -18 -86 -20 -98 -27 -160 -10 -84 -6 -459 5 -525 6 -30 13 -73 16 -95
3 -22 20 -92 36 -155 37 -138 36 -137 60 -195 4 -11 18 -45 30 -75 30 -76 103
-224 113 -228 4 -2 7 -8 7 -14 0 -14 143 -226 179 -265 16 -18 37 -43 45 -54
56 -80 376 -369 409 -369 4 0 17 -8 28 -18 10 -11 32 -25 47 -32 15 -8 34 -19
42 -26 16 -13 191 -101 250 -127 39 -17 102 -41 110 -43 3 0 13 -4 23 -7 32
-13 52 -19 82 -28 78 -21 112 -30 130 -34 55 -11 82 -17 102 -20 11 -2 29 -5
40 -8 96 -29 525 -29 666 -1 16 3 38 7 50 9 30 3 210 47 237 57 8 3 51 18 95
33 146 50 462 214 473 246 2 5 9 9 16 9 7 0 21 8 32 18 10 9 45 37 77 61 74
56 229 207 298 291 56 66 169 223 182 250 4 8 16 29 27 45 21 34 121 233 124
249 2 6 9 27 18 46 8 19 20 53 27 75 7 22 16 49 21 60 28 67 73 302 87 445 4
41 7 572 7 1180 l1 1105 -1128 0 c-621 0 -1130 -1 -1131 -2z"/>
<path d="M4776 4200 c-1 -3 -1 -414 0 -915 1 -802 5 -1017 17 -1075 2 -8 7
-33 11 -55 13 -71 48 -198 77 -282 31 -88 127 -286 141 -291 4 -2 8 -10 8 -18
0 -8 5 -14 10 -14 6 0 10 -5 10 -11 0 -10 68 -108 118 -171 35 -44 209 -216
257 -254 43 -34 129 -93 225 -153 66 -42 305 -145 360 -156 8 -2 35 -9 60 -16
54 -15 55 -15 104 -23 21 -3 41 -8 45 -10 42 -26 519 -25 591 1 8 3 29 7 45
10 17 2 55 11 85 19 30 8 65 17 76 19 12 3 38 12 58 20 20 8 38 15 41 16 44 3
343 156 353 181 2 4 8 8 14 8 15 0 164 119 233 186 82 80 153 161 195 220 19
27 38 51 42 52 4 2 8 8 8 13 0 5 16 34 35 64 121 189 211 447 243 698 8 62 7
365 -1 422 -17 124 -43 232 -84 354 -44 134 -187 405 -230 439 -9 6 -13 12 -9
12 16 0 -95 130 -187 219 -86 82 -97 92 -157 137 -142 107 -286 189 -420 239
-3 1 -12 4 -20 8 -51 21 -177 58 -245 72 -78 16 -96 19 -200 31 -63 7 -1906
11 -1909 4z"/>
</g>
</svg>
